REM DIRINDEX 1\3,1\2\4,1\2\5,1\2\6
REM DIRNAME folder01,folder02,folder03,folder04,folder05,folder06
TITLE ""
FILE "092.mp3" MP3
  TRACK 01 AUDIO
    TITLE "4:cjc137_3783"
    INDEX 01 00:00:00
  TRACK 02 AUDIO
    TITLE "0:"
    INDEX 01 00:01:15
  TRACK 03 AUDIO
    TITLE "6:cjc137_3784"
    INDEX 01 00:01:26
  TRACK 04 AUDIO
    TITLE "0:"
    INDEX 01 00:02:42
  TRACK 05 AUDIO
    TITLE "5:cjc137_3785"
    INDEX 01 00:02:45
  TRACK 06 AUDIO
    TITLE "0:"
    INDEX 01 00:03:63
  TRACK 07 AUDIO
    TITLE "4:cjc137_3786"
    INDEX 01 00:04:74
  TRACK 08 AUDIO
    TITLE "0:"
    INDEX 01 00:06:41
  TRACK 09 AUDIO
    TITLE "6:cjc137_3787"
    INDEX 01 00:06:47
  TRACK 10 AUDIO
    TITLE "0:"
    INDEX 01 00:08:03
  TRACK 11 AUDIO
    TITLE "5:cjc137_3788"
    INDEX 01 00:08:07
  TRACK 12 AUDIO
    TITLE "0:"
    INDEX 01 00:09:49
  TRACK 13 AUDIO
    TITLE "4:cjc137_3789"
    INDEX 01 00:10:57
  TRACK 14 AUDIO
    TITLE "0:"
    INDEX 01 00:12:12
  TRACK 15 AUDIO
    TITLE "6:cjc137_3790"
    INDEX 01 00:12:18
  TRACK 16 AUDIO
    TITLE "0:"
    INDEX 01 00:13:51
  TRACK 17 AUDIO
    TITLE "5:cjc137_3791"
    INDEX 01 00:13:55
  TRACK 18 AUDIO
    TITLE "0:"
    INDEX 01 00:15:11
  TRACK 19 AUDIO
    TITLE "4:cjc137_3792"
    INDEX 01 00:16:18
  TRACK 20 AUDIO
    TITLE "0:"
    INDEX 01 00:17:29
  TRACK 21 AUDIO
    TITLE "6:cjc137_3793"
    INDEX 01 00:17:35
  TRACK 22 AUDIO
    TITLE "0:"
    INDEX 01 00:18:31
  TRACK 23 AUDIO
    TITLE "5:cjc137_3794"
    INDEX 01 00:18:37
  TRACK 24 AUDIO
    TITLE "0:"
    INDEX 01 00:19:48
  TRACK 25 AUDIO
    TITLE "4:cjc137_3795"
    INDEX 01 00:20:57
  TRACK 26 AUDIO
    TITLE "0:"
    INDEX 01 00:22:05
  TRACK 27 AUDIO
    TITLE "6:cjc137_3796"
    INDEX 01 00:22:09
  TRACK 28 AUDIO
    TITLE "0:"
    INDEX 01 00:23:16
  TRACK 29 AUDIO
    TITLE "5:cjc137_3797"
    INDEX 01 00:23:24
  TRACK 30 AUDIO
    TITLE "0:"
    INDEX 01 00:24:47
  TRACK 31 AUDIO
    TITLE "4:cjc137_3798"
    INDEX 01 00:25:56
  TRACK 32 AUDIO
    TITLE "0:"
    INDEX 01 00:26:66
  TRACK 33 AUDIO
    TITLE "6:cjc137_3799"
    INDEX 01 00:26:73
  TRACK 34 AUDIO
    TITLE "0:"
    INDEX 01 00:28:23
  TRACK 35 AUDIO
    TITLE "5:cjc137_3800"
    INDEX 01 00:28:31
  TRACK 36 AUDIO
    TITLE "0:"
    INDEX 01 00:29:40
  TRACK 37 AUDIO
    TITLE "4:cjc137_3801"
    INDEX 01 00:30:52
  TRACK 38 AUDIO
    TITLE "0:"
    INDEX 01 00:31:71
  TRACK 39 AUDIO
    TITLE "6:cjc137_3802"
    INDEX 01 00:32:03
  TRACK 40 AUDIO
    TITLE "0:"
    INDEX 01 00:33:03
  TRACK 41 AUDIO
    TITLE "5:cjc137_3803"
    INDEX 01 00:33:09
  TRACK 42 AUDIO
    TITLE "0:"
    INDEX 01 00:34:30
  TRACK 43 AUDIO
    TITLE "4:cjc137_3804"
    INDEX 01 00:35:39
  TRACK 44 AUDIO
    TITLE "0:"
    INDEX 01 00:36:48
  TRACK 45 AUDIO
    TITLE "6:cjc137_3805"
    INDEX 01 00:36:56
  TRACK 46 AUDIO
    TITLE "0:"
    INDEX 01 00:37:54
  TRACK 47 AUDIO
    TITLE "5:cjc137_3806"
    INDEX 01 00:37:61
  TRACK 48 AUDIO
    TITLE "0:"
    INDEX 01 00:38:67
  TRACK 49 AUDIO
    TITLE "4:cjc137_3807"
    INDEX 01 00:40:03
  TRACK 50 AUDIO
    TITLE "0:"
    INDEX 01 00:41:20
  TRACK 51 AUDIO
    TITLE "6:cjc137_3808"
    INDEX 01 00:41:26
  TRACK 52 AUDIO
    TITLE "0:"
    INDEX 01 00:42:43
  TRACK 53 AUDIO
    TITLE "5:cjc137_3809"
    INDEX 01 00:42:55
  TRACK 54 AUDIO
    TITLE "0:"
    INDEX 01 00:43:70
  TRACK 55 AUDIO
    TITLE "4:cjc137_3810"
    INDEX 01 00:45:06
  TRACK 56 AUDIO
    TITLE "0:"
    INDEX 01 00:46:11
  TRACK 57 AUDIO
    TITLE "6:cjc137_3811"
    INDEX 01 00:46:19
  TRACK 58 AUDIO
    TITLE "0:"
    INDEX 01 00:47:34
  TRACK 59 AUDIO
    TITLE "5:cjc137_3812"
    INDEX 01 00:47:42
  TRACK 60 AUDIO
    TITLE "0:"
    INDEX 01 00:48:48
  TRACK 61 AUDIO
    TITLE "4:cjc137_3813"
    INDEX 01 00:49:59
  TRACK 62 AUDIO
    TITLE "0:"
    INDEX 01 00:50:68
  TRACK 63 AUDIO
    TITLE "6:cjc137_3814"
    INDEX 01 00:51:01
  TRACK 64 AUDIO
    TITLE "0:"
    INDEX 01 00:51:63
  TRACK 65 AUDIO
    TITLE "5:cjc137_3815"
    INDEX 01 00:51:71
  TRACK 66 AUDIO
    TITLE "0:"
    INDEX 01 00:53:04
  TRACK 67 AUDIO
    TITLE "4:cjc137_3816"
    INDEX 01 00:54:17
  TRACK 68 AUDIO
    TITLE "0:"
    INDEX 01 00:55:28
  TRACK 69 AUDIO
    TITLE "6:cjc137_3817"
    INDEX 01 00:55:36
  TRACK 70 AUDIO
    TITLE "0:"
    INDEX 01 00:56:45
  TRACK 71 AUDIO
    TITLE "5:cjc137_3818"
    INDEX 01 00:56:51
  TRACK 72 AUDIO
    TITLE "0:"
    INDEX 01 00:57:64
  TRACK 73 AUDIO
    TITLE "4:cjc137_3819"
    INDEX 01 00:59:00
  TRACK 74 AUDIO
    TITLE "0:"
    INDEX 01 01:00:27
  TRACK 75 AUDIO
    TITLE "6:cjc137_3820"
    INDEX 01 01:00:35
  TRACK 76 AUDIO
    TITLE "0:"
    INDEX 01 01:01:72
  TRACK 77 AUDIO
    TITLE "5:cjc137_3821"
    INDEX 01 01:02:05
  TRACK 78 AUDIO
    TITLE "0:"
    INDEX 01 01:03:31
  TRACK 79 AUDIO
    TITLE "4:cjc137_3822"
    INDEX 01 01:04:41
  TRACK 80 AUDIO
    TITLE "0:"
    INDEX 01 01:06:00
  TRACK 81 AUDIO
    TITLE "6:cjc137_3823"
    INDEX 01 01:06:08
  TRACK 82 AUDIO
    TITLE "0:"
    INDEX 01 01:07:23
  TRACK 83 AUDIO
    TITLE "5:cjc137_3824"
    INDEX 01 01:07:27
  TRACK 84 AUDIO
    TITLE "0:"
    INDEX 01 01:08:62
